<svg width="2512" height="1579.2" xmlns="http://www.w3.org/2000/svg" xmlns:xlink="http://www.w3.org/1999/xlink" xml:space="preserve">
 <g>
  <title>Layer 1</title>
  <g id="svg_134">
   <g id="svg_135">
    <g id="svg_136">
     <g id="svg_137">
      <defs>
       <polygon id="SVGID_108_" points="1143.6,766.1 1738.3,766.1 1738.3,1094.4 1123.6,1084.4 "/>
      </defs>
      <clipPath id="SVGID_109_">
       <use xlink:href="#SVGID_108_" id="svg_138"/>
      </clipPath>
     </g>
    </g>
   </g>
  </g>
  <g id="svg_322">
   <defs>
    <path id="SVGID_286_" d="m2075.2,521c-0.9,-0.9 -2.4,-1.2 -3.6,-0.6c-1.6,0.8 -2.2,2.7 -1.5,4.3c0.8,1.6 2.7,2.2 4.3,1.5c1.3,-0.6 1.9,-1.9 1.8,-3.3l29.8,-14.6l24.9,8.4l1,-1.9l-26,-8.8l-30.7,15z"/>
   </defs>
   <clipPath id="SVGID_287_">
    <use xlink:href="#SVGID_286_" id="svg_323"/>
   </clipPath>
   <defs>
    <filter id="Adobe_OpacityMaskFilter_6_" x="2059.3" y="476.3" width="82.4" height="80.4"/>
   </defs>
   <mask maskUnits="userSpaceOnUse" x="2059.3" y="476.3" width="82.4" height="80.4" id="SVGID_288_">
    <g class="st104" filter="url(#Adobe_OpacityMaskFilter_6_)" id="svg_324">
     <polygon class="st105" points="2109.9,476.3 2141.7,519.6 2091.1,556.7 2059.3,513.3 " clip-path="url(#SVGID_287_)" fill="url(#SVGID_289_)" id="svg_325"/>
    </g>
   </mask>
   <polygon class="st106" points="2109.9,476.3 2141.7,519.6 2091.1,556.7 2059.3,513.3 " clip-path="url(#SVGID_287_)" mask="url(#SVGID_288_)" fill="url(#SVGID_290_)" id="svg_326"/>
  </g>
  <g id="svg_332">
   <defs>
    <path id="SVGID_296_" d="m2098.4,525.3c-0.9,-0.9 -2.4,-1.2 -3.6,-0.6c-1.6,0.8 -2.2,2.7 -1.5,4.3c0.8,1.6 2.7,2.2 4.3,1.5c1.3,-0.6 1.9,-2 1.8,-3.3l7.2,-3.6l15.1,5.1l1.6,-1.7l-16.9,-5.7l-8,4z"/>
   </defs>
   <clipPath id="SVGID_297_">
    <use xlink:href="#SVGID_296_" id="svg_333"/>
   </clipPath>
   <defs>
    <filter id="Adobe_OpacityMaskFilter_8_" x="2087.9" y="506.6" width="40.2" height="39.2"/>
   </defs>
   <mask maskUnits="userSpaceOnUse" x="2087.9" y="506.6" width="40.2" height="39.2" id="SVGID_298_">
    <g class="st110" filter="url(#Adobe_OpacityMaskFilter_8_)" id="svg_334">
     <polygon class="st111" points="2112.6,506.6 2128,527.7 2103.3,545.9 2087.9,524.8 " clip-path="url(#SVGID_297_)" fill="url(#SVGID_299_)" id="svg_335"/>
    </g>
   </mask>
   <polygon class="st112" points="2112.6,506.6 2128,527.7 2103.3,545.9 2087.9,524.8 " clip-path="url(#SVGID_297_)" mask="url(#SVGID_298_)" fill="url(#SVGID_300_)" id="svg_336"/>
  </g>
  <g id="svg_357">
   <defs>
    <path id="SVGID_321_" d="m2123.9,447.4c-0.6,1.7 0.3,3.5 2,4c1.3,0.5 2.7,0 3.5,-1.1l27.7,9.4l-0.2,-2.3l-26.8,-9.1c0,-1.3 -0.8,-2.5 -2.2,-3c-0.3,-0.1 -0.7,-0.2 -1,-0.2c-1.3,0.1 -2.5,0.9 -3,2.3"/>
   </defs>
   <clipPath id="SVGID_322_">
    <use xlink:href="#SVGID_321_" id="svg_358"/>
   </clipPath>
   <defs>
    <filter id="Adobe_OpacityMaskFilter_13_" x="2116.4" y="429.1" width="47.7" height="46.8"/>
   </defs>
   <mask maskUnits="userSpaceOnUse" x="2116.4" y="429.1" width="47.7" height="46.8" id="SVGID_323_">
    <g class="st125" filter="url(#Adobe_OpacityMaskFilter_13_)" id="svg_359">
     <polygon class="st126" points="2145.4,429.1 2164.1,454.7 2135.1,475.9 2116.4,450.3 " clip-path="url(#SVGID_322_)" fill="url(#SVGID_324_)" id="svg_360"/>
    </g>
   </mask>
   <polygon class="st127" points="2145.4,429.1 2164.1,454.7 2135.1,475.9 2116.4,450.3 " clip-path="url(#SVGID_322_)" mask="url(#SVGID_323_)" fill="url(#SVGID_325_)" id="svg_361"/>
  </g>
  <g id="svg_362">
   <defs>
    <path id="SVGID_326_" d="m2106.6,440.2c-0.6,1.7 0.3,3.5 2,4c0.5,0.2 1,0.2 1.4,0.1l3.9,8l41.7,14.3l1,2.1l0.2,-3.9l-41.4,-14.2l-3.6,-7.2c0.3,-0.3 0.6,-0.7 0.8,-1.2c0.6,-1.7 -0.3,-3.5 -2,-4c-0.3,-0.1 -0.7,-0.2 -1,-0.2c-1.3,0 -2.5,0.8 -3,2.2"/>
   </defs>
   <clipPath id="SVGID_327_">
    <use xlink:href="#SVGID_326_" id="svg_363"/>
   </clipPath>
   <defs>
    <filter id="Adobe_OpacityMaskFilter_14_" x="2091.4" y="413.8" width="80.2" height="79.2"/>
   </defs>
   <mask maskUnits="userSpaceOnUse" x="2091.4" y="413.8" width="80.2" height="79.2" id="SVGID_328_">
    <g class="st128" filter="url(#Adobe_OpacityMaskFilter_14_)" id="svg_364">
     <polygon class="st129" points="2139.2,413.8 2171.6,458.1 2123.8,493 2091.4,448.8 " clip-path="url(#SVGID_327_)" fill="url(#SVGID_329_)" id="svg_365"/>
    </g>
   </mask>
   <polygon class="st130" points="2139.2,413.8 2171.6,458.1 2123.8,493 2091.4,448.8 " clip-path="url(#SVGID_327_)" mask="url(#SVGID_328_)" fill="url(#SVGID_330_)" id="svg_366"/>
  </g>
  <g id="svg_367">
   <defs>
    <path id="SVGID_331_" d="m2137.4,466.8c-0.6,1.7 0.3,3.5 2,4c1.3,0.5 2.7,0 3.6,-1.1l7.6,2.6l3.8,7.6l0.8,-3.1l-3.1,-6.3l-8.5,-2.9c0,-1.3 -0.8,-2.5 -2.2,-3c-0.3,-0.1 -0.7,-0.2 -1,-0.2c-1.3,0.3 -2.6,1.1 -3,2.4"/>
   </defs>
   <clipPath id="SVGID_332_">
    <use xlink:href="#SVGID_331_" id="svg_368"/>
   </clipPath>
   <defs>
    <filter id="Adobe_OpacityMaskFilter_15_" x="2129.5" y="455.9" width="32.9" height="32.8"/>
   </defs>
   <mask maskUnits="userSpaceOnUse" x="2129.5" y="455.9" width="32.9" height="32.8" id="SVGID_333_">
    <g class="st131" filter="url(#Adobe_OpacityMaskFilter_15_)" id="svg_369">
     <polygon class="st132" points="2148.7,455.9 2162.4,474.6 2143.2,488.7 2129.5,470 " clip-path="url(#SVGID_332_)" fill="url(#SVGID_334_)" id="svg_370"/>
    </g>
   </mask>
   <polygon class="st133" points="2148.7,455.9 2162.4,474.6 2143.2,488.7 2129.5,470 " clip-path="url(#SVGID_332_)" mask="url(#SVGID_333_)" fill="url(#SVGID_335_)" id="svg_371"/>
  </g>
  <g id="svg_407">
   <defs>
    <path id="SVGID_371_" d="m2088.1,407.9c-1.3,0.5 -2.2,1.7 -2.2,3l-17.8,6.5l-2.4,5l1.1,2.5l2.8,-5.8l17,-6.2c0.8,1 2.2,1.5 3.5,1c1.7,-0.6 2.6,-2.4 2,-4c-0.5,-1.3 -1.7,-2.2 -3,-2.2c-0.3,0 -0.7,0.1 -1,0.2"/>
   </defs>
   <clipPath id="SVGID_372_">
    <use xlink:href="#SVGID_371_" id="svg_408"/>
   </clipPath>
   <defs>
    <filter id="Adobe_OpacityMaskFilter_23_" x="2057.5" y="394.9" width="43.3" height="42.9"/>
   </defs>
   <mask maskUnits="userSpaceOnUse" x="2057.5" y="394.9" width="43.3" height="42.9" id="SVGID_373_">
    <g class="st155" filter="url(#Adobe_OpacityMaskFilter_23_)" id="svg_409">
     <polygon class="st156" points="2083.3,394.9 2100.9,418.9 2075.1,437.7 2057.5,413.7 " clip-path="url(#SVGID_372_)" fill="url(#SVGID_374_)" id="svg_410"/>
    </g>
   </mask>
   <polygon class="st157" points="2083.3,394.9 2100.9,418.9 2075.1,437.7 2057.5,413.7 " clip-path="url(#SVGID_372_)" mask="url(#SVGID_373_)" fill="url(#SVGID_375_)" id="svg_411"/>
  </g>
  <g id="svg_417">
   <defs>
    <path id="SVGID_381_" d="m2110,410.4l1,1.9l5.3,-1.8l6.4,3.2c-0.2,1.3 0.5,2.7 1.8,3.3c1.6,0.8 3.5,0.1 4.3,-1.5c0.8,-1.6 0.1,-3.5 -1.5,-4.3c-1.2,-0.6 -2.7,-0.3 -3.6,0.6l-7.2,-3.6l-6.5,2.2z"/>
   </defs>
   <clipPath id="SVGID_382_">
    <use xlink:href="#SVGID_381_" id="svg_418"/>
   </clipPath>
   <defs>
    <filter id="Adobe_OpacityMaskFilter_25_" x="2105.4" y="398.9" width="28.6" height="28.1"/>
   </defs>
   <mask maskUnits="userSpaceOnUse" x="2105.4" y="398.9" width="28.6" height="28.1" id="SVGID_383_">
    <g class="st161" filter="url(#Adobe_OpacityMaskFilter_25_)" id="svg_419">
     <polygon class="st162" points="2122.7,398.9 2134,414.4 2116.8,427.1 2105.4,411.6 " clip-path="url(#SVGID_382_)" fill="url(#SVGID_384_)" id="svg_420"/>
    </g>
   </mask>
   <polygon class="st163" points="2122.7,398.9 2134,414.4 2116.8,427.1 2105.4,411.6 " clip-path="url(#SVGID_382_)" mask="url(#SVGID_383_)" fill="url(#SVGID_385_)" id="svg_421"/>
  </g>
  <g id="svg_438">
   <defs>
    <path id="SVGID_402_" d="m2065.7,1312.8c-15.3,11.4 -20.5,23.4 -11.6,27c9,3.5 28.7,-2.8 44,-14.2c15.3,-11.4 20.5,-23.4 11.6,-27c-1.7,-0.7 -3.7,-1 -6,-1c-10.1,0.1 -25.5,6 -38,15.2"/>
   </defs>
   <clipPath id="SVGID_403_">
    <use xlink:href="#SVGID_402_" id="svg_439"/>
   </clipPath>
   <polygon class="st172" points="2136.3,1335.9 2057.1,1369.2 2027.6,1305 2106.8,1271.8 " clip-path="url(#SVGID_403_)" fill="url(#SVGID_404_)" id="svg_440"/>
  </g>
  <g id="svg_447">
   <defs>
    <path id="SVGID_411_" d="m2131.9,1279.2l21.2,12.1c1.2,0.7 2.7,0.7 4,0l21.2,-12.1l-23.2,-13.3l-23.2,13.3z"/>
   </defs>
   <clipPath id="SVGID_412_">
    <use xlink:href="#SVGID_411_" id="svg_448"/>
   </clipPath>
   <rect x="2131.9" y="1265.9" class="st175" width="46.4" height="26.1" clip-path="url(#SVGID_412_)" fill="url(#SVGID_413_)" id="svg_449"/>
  </g>
  <g id="svg_453">
   <defs>
    <path id="SVGID_417_" d="m2155.1,1212l0,54.1c0,0 0.4,0 0.8,0.2s22.4,12.8 22.4,12.8l45.1,-25.9c1.2,-0.7 1.2,-2.4 0,-3.1l-66.1,-37.8c-0.4,-0.3 -0.9,-0.4 -1.5,-0.4l-0.7,0l0,0.1z"/>
   </defs>
   <clipPath id="SVGID_418_">
    <use xlink:href="#SVGID_417_" id="svg_454"/>
   </clipPath>
   <polygon class="st177" points="2246.4,1271.1 2163.4,1301.8 2133.3,1220.1 2216.2,1189.5 " clip-path="url(#SVGID_418_)" fill="url(#SVGID_419_)" id="svg_455"/>
  </g>
  <g id="svg_459">
   <defs>
    <polygon id="SVGID_423_" points="1976.7,1253.6 1976,1253.9 1975.9,1253.9 1975.8,1253.9 1975.9,1253.8 1970.2,1252.6 1960.9,1252.6 1949.1,1255.5 1939.5,1261.5 1934.6,1266.9 1933.3,1267.2 1925.2,1269.1 1921.4,1270.8 1922.3,1272.8 1931.3,1281.5 1940.2,1287.8 1950.1,1292.5 1954.3,1294.7 1959.4,1297.3 1968.6,1300.9 1979.4,1304.5 1989.8,1306.3 1994.5,1307 2002.1,1308.1 2015.8,1307.8 2024.7,1306.2 2025.7,1306 2030.1,1304.3 2038.2,1302.4 2046.2,1298.8 2051.6,1294.1 2052.7,1291.9 2046.9,1284 2037.3,1274.4 2027.2,1267 2016.6,1261.6 2006.1,1258.6 2003.2,1258.4 2003.2,1258.4 1996.4,1254.5 1989,1252.6 1982.2,1252.5 "/>
   </defs>
   <clipPath id="SVGID_424_">
    <use xlink:href="#SVGID_423_" id="svg_460"/>
   </clipPath>
   <rect x="1921.4" y="1252.5" class="st179" width="131.3" height="55.6" clip-path="url(#SVGID_424_)" fill="url(#SVGID_425_)" id="svg_461"/>
  </g>
  <g id="svg_462">
   <defs>
    <path id="SVGID_426_" d="m2116.6,1204.9l0,0l0,0z"/>
   </defs>
   <clipPath id="SVGID_427_">
    <use xlink:href="#SVGID_426_" id="svg_463"/>
   </clipPath>
   <circle class="st180" cx="2116.6" cy="1204.9" r="0" clip-path="url(#SVGID_427_)" fill="url(#SVGID_428_)" id="svg_464"/>
  </g>
  <g id="svg_465">
   <defs>
    <path id="SVGID_429_" d="m2009.7,1484.6c0,0.8 0.6,1.7 1.6,1.8l103.6,10.1c1,0.1 1.8,-0.6 1.9,-1.5c0.1,-0.5 0,-38.8 0,-38.8l-107.2,-10.3c0.1,0 0.1,38.1 0.1,38.7"/>
   </defs>
   <clipPath id="SVGID_430_">
    <use xlink:href="#SVGID_429_" id="svg_466"/>
   </clipPath>
   <polygon class="st181" points="2003,1446.8 2115,1431.7 2123.7,1495.7 2011.7,1510.8 " clip-path="url(#SVGID_430_)" fill="url(#SVGID_431_)" id="svg_467"/>
  </g>
  <g id="svg_468">
   <defs>
    <path id="SVGID_432_" d="m2076.2,1411.6l-65.5,32.6c-1.6,0.8 -1.2,3.2 0.6,3.3l103.6,10.1c1.6,0.2 2.6,-1.7 1.5,-2.9l-36.2,-42.4c-0.6,-0.8 -1.6,-1.2 -2.5,-1.2c-0.5,0.2 -1,0.3 -1.5,0.5"/>
   </defs>
   <clipPath id="SVGID_433_">
    <use xlink:href="#SVGID_432_" id="svg_469"/>
   </clipPath>
   <polygon class="st182" points="1996.9,1414.7 2109.4,1382.8 2129.7,1454.4 2017.2,1486.3 " clip-path="url(#SVGID_433_)" fill="url(#SVGID_434_)" id="svg_470"/>
  </g>
  <g id="svg_582">
   <defs>
    <path id="SVGID_546_" d="m2203,973.5l-45.4,15.9c0,0 0,33.3 0,34.8c0,0.3 0,0.6 0.1,0.9c0,0 0,0 0,0c0.1,0.5 0.3,0.9 0.6,1.4l0,0l0,0c0.5,0.8 1.3,1.5 2.4,2.2l40.9,23.6c4.2,2.4 10.9,2.4 15.1,0l42.3,-24c1.1,-0.6 1.9,-1.4 2.4,-2.2l0,0l0,0c0.3,-0.4 0.5,-0.9 0.6,-1.4c0.1,-0.2 0.1,-0.5 0.1,-0.7c0.1,-1.6 0,-35 0,-35l-44,-15.5c-2.1,-1.2 -4.8,-1.8 -7.5,-1.8c-2.8,0 -5.6,0.6 -7.6,1.8"/>
   </defs>
   <clipPath id="SVGID_547_">
    <use xlink:href="#SVGID_546_" id="svg_583"/>
   </clipPath>
   <rect x="2157.5" y="971.7" class="st248" width="104.5" height="82.9" clip-path="url(#SVGID_547_)" fill="url(#SVGID_548_)" id="svg_584"/>
  </g>
  <g id="svg_585">
   <defs>
    <path id="SVGID_549_" d="m2203,961l-42.3,24c-2.4,1.4 -3.4,3.3 -3,5.1c0,0 0,0 0,0c0.1,0.5 0.3,0.9 0.6,1.4l0,0l0,0c0.5,0.8 1.3,1.5 2.4,2.2l40.9,23.6c4.2,2.4 10.9,2.4 15.1,0l42.3,-24c1.1,-0.6 1.9,-1.4 2.4,-2.2l0,0l0,0c0.3,-0.4 0.5,-0.9 0.6,-1.4c0.4,-1.8 -0.6,-3.7 -3,-5.1l-41,-23.6c-2.1,-1.2 -4.8,-1.8 -7.5,-1.8c-2.7,0 -5.5,0.6 -7.5,1.8"/>
   </defs>
   <clipPath id="SVGID_550_">
    <use xlink:href="#SVGID_549_" id="svg_586"/>
   </clipPath>
   <polygon class="st249" points="2149.7,960.2 2260.7,946.2 2269.8,1018.7 2158.8,1032.7 " clip-path="url(#SVGID_550_)" fill="url(#SVGID_551_)" id="svg_587"/>
  </g>
  <g stroke="null">
   <path stroke="null" fill="#D33833" d="m578.13109,769.59206c0,147.93275 -117.23524,267.7992 -261.8546,267.7992c-144.61936,0 -261.75715,-119.86645 -261.75715,-267.7992c0,-147.93275 117.23524,-267.7992 261.75715,-267.7992c144.61936,0 261.8546,119.96391 261.8546,267.7992" class="st0"/>
   <path stroke="null" fill="#EF3D3A" d="m65.14165,835.95714c0,0 -18.90577,-279.29858 238.36857,-287.28968l-17.93124,-29.91789l-139.64929,46.87461l-39.85803,45.90008l-34.88796,66.85235l-19.97774,77.76702l5.9446,51.84468" class="st1"/>
   <path stroke="null" fill="#231F20" d="m136.96407,586.96626c-45.90008,46.97206 -74.35618,111.87536 -74.35618,183.60032c0,71.72497 28.4561,136.62827 74.35618,183.69778c45.99753,46.97206 109.34159,76.01287 179.31242,76.01287c70.06828,0 133.31489,-29.04082 179.31242,-76.01287c45.90008,-46.97206 74.35618,-111.87536 74.35618,-183.69778c0,-71.82242 -28.4561,-136.72572 -74.35618,-183.69778c-45.99753,-46.97206 -109.34159,-76.01287 -179.31242,-76.01287c-69.97082,0.09745 -133.31489,29.04082 -179.31242,76.11033l0,0zm-11.59684,378.70003c-48.82365,-49.89563 -79.0339,-118.89193 -79.0339,-195.00226c0,-76.11033 30.21024,-145.10663 79.0339,-195.00226c48.82365,-49.89563 116.35817,-80.88549 190.90925,-80.88549c74.55109,0 142.18305,30.89241 190.90925,80.88549c48.82365,49.89563 79.0339,118.89193 79.0339,195.00226c0,76.11033 -30.21024,145.10663 -79.0339,195.00226c-48.82365,49.89563 -116.35817,80.88549 -190.90925,80.88549c-74.55109,0 -142.0856,-30.98986 -190.90925,-80.88549" class="st2"/>
   <path stroke="null" fill="#F0D6B7" d="m426.49515,771.05384l-39.85803,5.9446l-53.89118,5.9446l-34.88796,0.97452l-33.91344,-0.97452l-25.92234,-7.9911l-22.90131,-24.94781l-17.93124,-50.87015l-3.99555,-11.01212l-23.97329,-7.9911l-14.03315,-22.70641l-9.94014,-32.93891l11.01212,-28.94336l25.92234,-8.96562l20.95227,9.94014l9.94014,21.92679l11.98665,-1.94905l3.99555,-4.97007l-3.99555,-22.90131l-0.97452,-28.94336l5.9446,-39.85803l-0.1949,-22.80386l18.12615,-29.13827l31.96439,-22.90131l55.84023,-23.97329l61.88228,8.96562l53.89118,38.88351l24.94781,39.85803l15.98219,28.94336l3.99555,71.82242l-11.98665,61.88228l-22.1217,54.8657l-20.95227,28.94336" class="st3"/>
   <path stroke="null" fill="#335061" d="m392.58172,943.64205l-142.67032,5.9446l0,23.97329l11.98665,83.80907l-5.9446,7.01657l-99.69381,-33.91344l-7.01657,-11.98665l-9.94014,-112.65498l-22.90131,-67.82687l-4.97007,-15.98219l79.81352,-54.8657l24.94781,-9.94014l21.92679,26.89686l18.90577,16.95672l21.92679,7.01657l9.94014,3.02102l11.98665,51.84468l8.96562,11.01212l22.90131,-7.9911l-15.98219,30.89241l86.73264,40.93001l-10.91467,5.84714" class="st4"/>
   <path stroke="null" fill="#6D6B6D" d="m156.16219,595.54207l25.92234,-8.96562l20.95227,9.94014l9.94014,21.92679l11.98665,-1.94905l3.02102,-11.98665l-5.9446,-22.90131l5.9446,-54.8657l-4.97007,-29.91789l17.93124,-20.95227l38.88351,-30.89241l-11.01212,-15.00767l-54.8657,26.89686l-22.90131,17.93124l-12.96117,27.96884l-19.88029,26.99432l-5.9446,31.96439l3.8981,33.81598" class="st5"/>
   <path stroke="null" fill="#DCD9D8" d="m197.0922,501.79286c0,0 15.00767,-36.93446 74.84344,-54.8657s3.02102,-12.96117 3.02102,-12.96117l-64.80585,24.94781l-24.94781,24.94781l-11.01212,19.97774l22.90131,-2.0465m-29.91789,86.73264c0,0 -20.95227,-69.77592 58.86125,-79.81352l-3.02102,-11.98665l-54.8657,12.96117l-15.98219,51.84468l3.99555,33.91344l11.01212,-6.91912" class="st6"/>
   <path stroke="null" fill="#F7E4CD" d="m199.04125,681.30018l13.05862,-12.66881c0,0 5.84714,0.68217 6.91912,7.69874c0.97452,7.01657 3.99555,69.77592 46.87461,103.68936c3.8981,3.11848 -31.96439,-4.97007 -31.96439,-4.97007l-31.96439,-49.89563m180.67675,-62.75935c0,0 2.33886,-30.21024 10.42741,-27.87139c8.186,2.33886 8.186,10.42741 8.186,10.42741s-19.78284,12.76626 -18.61341,17.44398m82.73709,-110.70593c0,0 -16.46946,3.50829 -17.93124,17.93124c-1.55924,14.52041 17.93124,3.02102 20.95227,1.94905m-123.6671,-18.90577c0,0 -21.92679,3.02102 -21.92679,16.95672c0,13.93569 24.94781,12.96117 31.96439,7.01657m-145.69134,40.83256c0,0 -37.90898,-22.90131 -41.90453,-0.97452c-3.99555,21.92679 -12.96117,37.90898 5.9446,60.8103l-12.96117,-3.99555l-11.98665,-30.89241l-3.99555,-29.91789l22.90131,-23.97329l25.92234,1.94905l15.00767,11.98665l1.07198,15.00767m17.93124,-62.75935c0,0 16.95672,-87.80461 102.71483,-104.76133c70.65299,-13.93569 107.6849,3.02102 121.71805,18.90577c0,0 -62.8568,-74.84344 -122.69257,-51.84468c-59.83577,22.90131 -103.68936,64.80585 -102.71483,91.80016c1.65669,45.80263 0.97452,45.90008 0.97452,45.90008m231.352,-75.81797c0,0 -28.94336,-0.97452 -29.91789,24.94781c0,0 0,3.99555 1.94905,7.9911c0,0 22.90131,-25.92234 36.93446,-11.98665" class="st7"/>
   <path stroke="null" fill="#F7E4CD" d="m331.77142,514.46167c0,0 -4.97007,-39.76058 -38.88351,-16.66436c-21.92679,15.00767 -19.97774,35.86248 -15.98219,39.85803c3.99555,3.99555 2.92357,11.98665 5.9446,6.52931c3.02102,-5.55479 2.0465,-23.48603 12.96117,-28.4561c11.01212,-4.97007 28.94336,-10.52486 35.95994,-1.26688" class="st7"/>
   <path stroke="null" fill="#49728B" d="m238.02221,784.01501l-93.74921,41.90453c0,0 38.88351,154.55951 18.90577,202.50609l-13.93569,-4.97007l-0.97452,-58.86125l-26.01979,-111.68045l-11.01212,-30.89241l97.74476,-65.78037l29.04082,27.77393m9.64779,85.56321l13.25353,16.1771l0,59.83577l-15.98219,0c0,0 -1.94905,-41.90453 -1.94905,-46.87461c0,-4.97007 1.94905,-22.90131 1.94905,-22.90131m3.02102,78.83899l-44.92556,1.94905l12.96117,8.96562l31.96439,4.97007" class="st8"/>
   <path stroke="null" fill="#335061" d="m401.54734,944.61657l36.93446,-0.97452l8.96562,91.80016l-37.90898,4.97007l-7.9911,-95.79571" class="st4"/>
   <path stroke="null" fill="#335061" d="m411.48748,944.61657l55.84023,-3.02102c0,0 22.90131,-57.88673 22.90131,-60.8103c0,-3.02102 19.97774,-83.80907 19.97774,-83.80907l-44.92556,-46.87461l-8.96562,-7.9911l-23.97329,23.97329l0,92.77469l-20.85481,85.75811" class="st4"/>
   <path stroke="null" fill="#49728B" d="m436.4353,937.69745l-34.88796,7.01657l4.97007,27.96884c12.96117,5.9446 34.88796,-9.94014 34.88796,-9.94014m-3.8981,-199.58252l69.77592,51.84468l1.94905,-23.97329l-52.8192,-48.82365l-18.90577,20.95227" class="st8"/>
   <path stroke="null" fill="#FFFFFF" d="m282.55796,1141.08061l-20.65991,-83.80907l-10.2325,-61.78482l-1.65669,-45.90008l93.45685,-4.97007l58.17908,0l-5.26243,104.76133l8.96562,80.78804l-0.97452,15.00767l-75.81797,5.9446l-45.99753,-10.0376" class="st9"/>
   <path stroke="null" fill="#DCD9D8" d="m388.58617,943.64205c0,0 -4.97007,103.68936 9.94014,177.55828c0,0 -29.91789,18.90577 -73.77147,23.97329l83.80907,-3.02102l9.94014,-5.9446l-11.98665,-163.52513l-3.02102,-34.88796" class="st6"/>
   <path stroke="null" fill="#FFFFFF" d="m449.10411,1027.45111l38.88351,-11.01212l73.77147,-3.99555l11.01212,-33.91344l-19.97774,-58.86125l-22.90131,-3.02102l-31.96439,9.94014l-30.60005,14.91022l-16.27455,-3.02102l-12.66881,4.97007" class="st9"/>
   <path stroke="null" fill="#DCD9D8" d="m448.42194,1007.47337c0,0 25.92234,-11.98665 29.91789,-11.01212l-11.01212,-54.8657l12.96117,-4.97007c0,0 8.96562,51.84468 8.96562,57.88673c0,0 55.84023,3.02102 60.8103,3.02102c0,0 11.98665,-22.90131 8.96562,-46.87461l11.01212,31.86694l0.97452,17.93124l-15.98219,23.97329l-17.93124,3.99555l-29.91789,-0.97452l-9.94014,-12.96117l-34.88796,4.97007l-11.01212,3.99555" class="st6"/>
   <path stroke="null" fill="#FFFFFF" d="m409.24608,936.62547l-21.92679,-55.84023l-22.90131,-32.93891c0,0 4.97007,-13.93569 11.98665,-13.93569l22.90131,0l21.92679,7.9911l-1.94905,36.93446l-10.0376,57.78927" class="st9"/>
   <path stroke="null" fill="#DCD9D8" d="m413.53398,917.71971c0,0 -27.96884,-53.89118 -27.96884,-61.88228c0,0 4.97007,-11.98665 11.98665,-8.96562c7.01657,3.02102 21.92679,11.01212 21.92679,11.01212l0,-18.90577l-33.91344,-7.01657l-22.90131,3.02102l38.88351,91.80016l7.9911,0.97452" class="st6"/>
   <path stroke="null" fill="#FFFFFF" d="m291.52358,786.06151l-27.67648,-3.02102l-25.92234,-7.9911l0,8.96562l12.66881,13.93569l39.85803,17.93124" class="st9"/>
   <path stroke="null" fill="#DCD9D8" d="m246.98783,789.08254c0,0 30.89241,12.96117 40.93001,9.94014l0.97452,11.98665l-27.87139,-5.9446l-16.95672,-11.98665l2.92357,-3.99555" class="st6"/>
   <path stroke="null" fill="#D33833" d="m449.00666,837.32148c-16.95672,-0.48726 -32.25674,-2.53376 -45.60772,-6.23695c0.87707,-5.45733 -0.77962,-10.91467 0.58471,-14.81277c3.70319,-2.72867 9.94014,-2.63121 15.59238,-3.31338c-4.87262,-2.43631 -11.69429,-3.31338 -17.34653,-1.94905c-0.09745,-3.80064 -1.8516,-6.1395 -2.92357,-9.16053c9.55034,-3.41083 31.96439,-25.62998 44.6332,-18.32105c6.04205,3.50829 8.57581,23.48603 9.06307,33.23127c0.48726,8.186 -0.68217,16.27455 -3.99555,20.56246" class="st0"/>
   <path stroke="#D33833" stroke-width="2.5" fill="none" d="m449.00666,837.32148c-16.95672,-0.48726 -32.25674,-2.53376 -45.60772,-6.23695c0.87707,-5.45733 -0.77962,-10.91467 0.58471,-14.81277c3.70319,-2.72867 9.94014,-2.63121 15.59238,-3.31338c-4.87262,-2.43631 -11.69429,-3.31338 -17.34653,-1.94905c-0.09745,-3.80064 -1.8516,-6.1395 -2.92357,-9.16053c9.55034,-3.41083 31.96439,-25.62998 44.6332,-18.32105c6.04205,3.50829 8.57581,23.48603 9.06307,33.23127c0.48726,8.186 -0.68217,16.27455 -3.99555,20.56246l0,0z" class="st10"/>
   <path stroke="null" fill="#D33833" d="m368.12116,809.64499c0,1.26688 -0.09745,2.53376 -0.1949,3.8981c-5.26243,3.50829 -13.83824,3.41083 -19.58793,6.33441c8.57581,0.38981 15.30003,2.43631 21.14717,5.35988l-0.38981,9.64779c-9.64779,6.62676 -18.51596,16.46946 -29.91789,22.70641c-5.35988,2.92357 -24.3631,10.52486 -30.01534,9.16053c-3.21593,-0.77962 -3.50829,-4.77517 -4.87262,-8.57581c-2.72867,-8.08855 -9.16053,-21.04972 -9.64779,-33.32872c-0.68217,-15.49493 -2.24141,-41.31982 14.42296,-38.20134c13.44843,2.53376 29.04082,8.77072 39.46822,14.42296c6.23695,3.50829 9.94014,7.89364 19.58793,8.57581" class="st0"/>
   <path stroke="#D33833" stroke-width="2.5" fill="none" d="m368.12116,809.64499c0,1.26688 -0.09745,2.53376 -0.1949,3.8981c-5.26243,3.50829 -13.83824,3.41083 -19.58793,6.33441c8.57581,0.38981 15.30003,2.43631 21.14717,5.35988l-0.38981,9.64779c-9.64779,6.62676 -18.51596,16.46946 -29.91789,22.70641c-5.35988,2.92357 -24.3631,10.52486 -30.01534,9.16053c-3.21593,-0.77962 -3.50829,-4.77517 -4.87262,-8.57581c-2.72867,-8.08855 -9.16053,-21.04972 -9.64779,-33.32872c-0.68217,-15.49493 -2.24141,-41.31982 14.42296,-38.20134c13.44843,2.53376 29.04082,8.77072 39.46822,14.42296c6.23695,3.50829 9.94014,7.89364 19.58793,8.57581l0,0z" class="st10"/>
   <path stroke="null" fill="#D33833" d="m377.76895,828.0635c-1.46179,-8.38091 -3.21593,-10.81722 -2.53376,-18.12615c22.41405,-15.00767 26.60451,25.72743 2.53376,18.12615" class="st0"/>
   <path stroke="#D33833" stroke-width="2.5" fill="none" d="m377.76895,828.0635c-1.46179,-8.38091 -3.21593,-10.81722 -2.53376,-18.12615c22.41405,-15.00767 26.60451,25.72743 2.53376,18.12615l0,0z" class="st10"/>
   <path stroke="null" fill="#EF3D3A" d="m410.2206,834.88517c0,0 -7.01657,-9.94014 -1.94905,-12.96117c4.97007,-3.02102 9.94014,0 12.96117,-4.97007c3.02102,-4.97007 0,-7.9911 0.97452,-13.93569c0.97452,-5.9446 5.9446,-7.01657 11.01212,-7.9911c4.97007,-0.97452 18.90577,-3.02102 20.95227,1.94905l-5.9446,-17.93124l-11.98665,-3.99555l-37.90898,21.92679l-1.94905,11.01212l0,21.92679m-90.82564,37.90898c-1.16943,-15.59238 -2.43631,-31.08732 -3.8981,-46.6797c-2.14395,-23.19367 5.55479,-19.19812 25.72743,-19.19812c3.11848,0 18.90577,3.70319 20.07519,5.9446c5.45733,11.10957 -9.06307,8.67326 6.23695,17.05417c12.96117,7.11403 35.86248,-4.28791 30.60005,-19.97774c-2.92357,-3.50829 -15.30003,-1.07198 -19.68539,-3.41083l-23.38858,-12.0841c-9.94014,-5.16498 -32.84146,-12.66881 -43.36632,-5.45733c-26.79941,18.2236 1.65669,63.73387 11.20703,82.73709" class="st1"/>
   <path stroke="null" fill="#231F20" d="m331.77142,514.46167c-27.18922,-6.33441 -40.7351,11.40193 -48.92111,29.72298c-7.40638,-1.75414 -4.38536,-11.79174 -2.53376,-16.85927c4.87262,-13.35098 24.46055,-31.18477 40.5402,-28.74846c6.82167,0.97452 16.07965,7.30893 10.91467,15.88474m132.43781,30.98986l1.26688,0c6.1395,12.76626 11.49938,26.31215 19.19812,37.51917c-5.16498,12.0841 -39.27332,22.80386 -38.78606,1.07198c7.40638,-3.21593 20.07519,-0.68217 26.70196,-4.77517c-3.80064,-10.32995 -9.25798,-19.19812 -8.38091,-33.81598m-118.50212,0.29236c5.84714,10.71976 7.69874,21.92679 15.98219,30.01534c3.70319,3.60574 11.01212,8.08855 7.40638,18.2236c-0.87707,2.33886 -7.01657,7.69874 -10.52486,8.77072c-12.96117,3.80064 -43.17141,0.77962 -32.93891,-15.39748c10.71976,0.48726 25.14272,6.91912 33.13382,-0.77962c-6.1395,-9.94014 -17.15162,-29.33317 -13.05862,-40.83256m113.6295,108.65943c-19.49048,12.57136 -41.22237,26.11724 -73.18675,22.99877c-6.82167,-5.9446 -9.45288,-19.10067 -2.82612,-27.87139c3.41083,5.9446 1.26688,16.85927 10.91467,18.51596c18.12615,3.11848 39.27332,-11.10957 52.23449,-16.07965c8.08855,-13.64334 -0.68217,-18.61341 -7.9911,-27.38412c-14.91022,-18.02869 -34.88796,-40.24784 -34.20579,-67.1447c6.04205,-4.38536 6.52931,6.62676 7.40638,8.67326c7.79619,18.2236 27.38412,41.51472 41.70963,57.10711c3.50829,3.80064 9.25798,7.50383 9.94014,10.0376c1.94905,7.30893 -4.77517,16.1771 -3.99555,21.14717m-257.07944,-13.25353c-6.1395,-3.50829 -7.60129,-18.90577 -14.71531,-19.29558c-10.2325,-0.58471 -8.38091,19.97774 -8.38091,31.96439c-7.01657,-6.43186 -8.28345,-26.11724 -3.11848,-36.25229c-5.9446,-2.92357 -8.57581,3.21593 -11.79174,5.35988c4.19045,-30.60005 44.73065,-14.22805 38.00644,18.2236m269.55334,25.92234c-9.06307,17.24908 -21.92679,36.34975 -48.5313,36.83701c-0.58471,-5.55479 -0.97452,-14.03315 0,-17.44398c20.36755,-1.8516 32.93891,-12.279 48.5313,-19.39303m-127.66265,11.20703c16.95672,8.96562 48.23894,9.94014 71.33516,9.25798c1.26688,5.06752 1.16943,11.30448 1.26688,17.44398c-29.72298,1.46179 -64.80585,-5.84714 -72.60204,-26.70196m-3.21593,16.66436c11.79174,29.52808 52.13703,26.11724 86.14792,25.33762c-1.46179,3.80064 -4.77517,8.38091 -8.77072,10.0376c-10.91467,4.48281 -41.02746,7.79619 -56.13258,-0.1949c-9.64779,-5.06752 -15.78729,-16.66436 -21.04972,-23.38858c-2.53376,-3.41083 -15.20257,-11.79174 -0.1949,-11.79174" class="st2"/>
   <path stroke="null" fill="#81B0C4" d="m457.97228,857.68903c-13.74079,23.58348 -26.99432,47.84913 -43.36632,68.70394c6.82167,-20.17265 9.74524,-53.89118 10.81722,-79.61861c14.3255,-6.72422 26.60451,1.46179 32.5491,10.91467" class="st11"/>
   <path stroke="null" fill="#231F20" d="m532.13356,942.57007c-15.39748,3.11848 -26.31215,18.12615 -41.31982,17.15162c8.28345,-11.69429 22.70641,-16.66436 41.31982,-17.15162m6.82167,24.1682c-12.57136,1.36433 -27.38412,3.41083 -40.15039,2.33886c6.04205,-9.25798 29.33317,-6.04205 40.15039,-2.33886m4.28791,20.85481c-14.1306,0.29236 -31.67203,0 -45.12046,-1.07198c7.9911,-8.57581 35.95994,-3.21593 45.12046,1.07198" class="st2"/>
   <path stroke="null" fill="#DCD9D8" d="m431.36777,1044.50528c2.0465,17.73634 9.06307,35.76503 8.186,55.15806c-7.79619,2.63121 -12.279,4.97007 -22.80386,4.97007c-0.77962,-16.56691 -2.92357,-41.80708 -2.24141,-57.59437c5.06752,0.38981 12.66881,-3.60574 16.85927,-2.53376" class="st6"/>
   <path stroke="null" fill="#F0D6B7" d="m408.56391,782.84558c-7.11403,4.67772 -13.15607,10.42741 -19.97774,15.39748c-15.10512,0.77962 -23.38858,-1.07198 -34.49815,-9.74524c0.1949,-0.68217 1.26688,-0.38981 1.36433,-1.26688c16.1771,7.21148 36.73956,-2.92357 53.11156,-4.38536" class="st3"/>
   <path stroke="null" fill="#81B0C4" d="m323.58542,893.1617c4.48281,-19.29558 21.82934,-29.23572 37.71408,-39.85803c16.372,20.75736 26.31215,47.36187 37.22682,73.0893c-25.92234,-7.79619 -52.33194,-20.465 -74.9409,-33.23127" class="st11"/>
   <path stroke="null" fill="#231F20" d="m414.41105,1047.1365c-0.68217,15.78729 1.55924,41.02746 2.24141,57.59437c10.52486,0 15.00767,-2.33886 22.80386,-4.97007c0.87707,-19.49048 -6.1395,-37.42172 -8.186,-55.15806c-4.093,-1.16943 -11.69429,2.82612 -16.85927,2.53376zm-163.13532,-89.65621c6.91912,63.53897 16.95672,116.84543 35.27777,173.07547c40.7351,12.37646 89.85111,13.44843 125.81105,2.24141c-6.62676,-31.76948 -3.70319,-70.36063 -7.60129,-104.27407c-2.92357,-25.43508 -1.46179,-51.06506 -5.45733,-77.08485c-43.56122,-8.86817 -105.15114,-1.94905 -148.0302,6.04205l0,0zm158.45761,-5.45733c-0.38981,27.28667 1.26688,54.18354 3.31338,81.47021c10.42741,-1.55924 17.54143,-2.63121 27.28667,-4.77517c-3.11848,-26.31215 -2.72867,-55.84023 -9.16053,-79.13135c-7.50383,0.09745 -14.03315,-0.09745 -21.43953,2.43631l0,0zm53.11156,-4.38536c-4.97007,-1.16943 -10.71976,0 -15.49493,0c2.24141,22.21915 7.60129,46.77715 9.55034,70.06828c7.50383,0.1949 11.49938,-3.31338 17.63888,-4.48281c0.29236,-20.36755 -1.8516,-48.62875 -11.69429,-65.58547zm80.39823,73.47911c15.59238,-3.80064 25.33762,-22.90131 21.04972,-42.48925c-2.92357,-13.15607 -8.08855,-37.90898 -13.74079,-46.38734c-4.093,-6.23695 -15.30003,-14.42296 -24.1682,-8.67326c-14.52041,9.25798 -40.05294,11.98665 -50.5778,23.19367c5.26243,17.63888 6.91912,41.90453 9.16053,64.31859c18.12615,1.16943 40.44275,-4.97007 55.45042,1.46179c-10.52486,3.41083 -24.1682,3.41083 -33.23127,8.38091c7.40638,3.70319 24.75291,2.92357 36.05739,0.1949l0,0zm-144.81427,-94.72373c-10.91467,-25.72743 -20.85481,-52.42939 -37.22682,-73.0893c-15.78729,10.62231 -33.23127,20.56246 -37.71408,39.85803c22.70641,12.76626 49.11601,25.43508 74.9409,33.23127l0,0zm26.99432,-79.61861c-1.07198,25.72743 -3.99555,59.44597 -10.81722,79.61861c16.372,-20.85481 29.52808,-45.12046 43.36632,-68.70394c-5.9446,-9.45288 -18.2236,-17.63888 -32.5491,-10.91467l0,0zm-30.60005,-10.91467c-6.23695,-0.68217 -11.49938,7.11403 -19.49048,3.80064c-1.8516,2.0465 -3.50829,4.28791 -5.35988,6.23695c17.83379,21.43953 25.92234,51.84468 39.66313,77.08485c7.40638,-24.1682 6.52931,-50.7727 8.186,-77.1823c-10.2325,0.68217 -15.88474,-9.16053 -22.99877,-9.94014l0,0zm-19.58793,-25.92234c-0.68217,7.30893 1.07198,9.74524 2.53376,18.12615c24.07074,7.60129 19.88029,-33.13382 -2.53376,-18.12615l0,0zm-26.79941,-8.77072c-10.42741,-5.65224 -26.01979,-11.88919 -39.46822,-14.42296c-16.66436,-3.21593 -15.10512,22.70641 -14.42296,38.20134c0.58471,12.279 6.91912,25.14272 9.64779,33.32872c1.26688,3.80064 1.55924,7.79619 4.87262,8.57581c5.74969,1.36433 24.65546,-6.23695 30.01534,-9.16053c11.40193,-6.23695 20.2701,-16.07965 29.91789,-22.70641c0.09745,-3.21593 0.29236,-6.43186 0.38981,-9.64779c-5.84714,-2.92357 -12.57136,-4.97007 -21.14717,-5.35988c5.74969,-2.92357 14.3255,-2.92357 19.58793,-6.33441c0,-1.26688 0.09745,-2.53376 0.1949,-3.8981c-9.55034,-0.77962 -13.25353,-5.16498 -19.58793,-8.57581l0,0zm-99.40145,-18.02869c-8.67326,8.77072 24.1682,20.75736 34.69305,21.34208c-0.09745,-5.55479 3.11848,-10.81722 2.53376,-14.71531c-12.47391,-2.24141 -28.74846,-0.77962 -37.22682,-6.62676l0,0zm106.41802,4.093c0,0.87707 -1.16943,0.58471 -1.36433,1.26688c11.10957,8.67326 19.39303,10.52486 34.49815,9.74524c6.82167,-4.97007 12.86372,-10.71976 19.97774,-15.39748c-16.372,1.46179 -36.93446,11.59684 -53.11156,4.38536l0,0zm97.64731,29.62553c-0.48726,-9.74524 -3.02102,-29.72298 -9.06307,-33.23127c-12.66881,-7.40638 -35.08286,14.91022 -44.6332,18.32105c1.07198,3.02102 2.72867,5.35988 2.82612,9.16053c5.65224,-1.36433 12.47391,-0.38981 17.34653,1.94905c-5.65224,0.58471 -11.88919,0.58471 -15.59238,3.31338c-1.36433,3.99555 0.29236,9.35543 -0.58471,14.81277c13.35098,3.80064 28.65101,5.74969 45.60772,6.23695c3.31338,-4.38536 4.48281,-12.47391 4.093,-20.56246l0,0zm-218.58574,-25.24017c-2.72867,-1.94905 -21.04972,-25.82489 -23.58348,-24.85036c-33.23127,13.05862 -64.22113,35.76503 -91.99507,57.10711c26.4096,56.7173 37.12937,126.29831 38.98096,193.24811c30.3077,14.1306 56.9122,34.5956 98.03712,36.73956c-4.77517,-33.62108 -9.06307,-63.63642 -11.79174,-95.4059c-10.32995,-4.38536 -25.14272,0.1949 -34.79051,-1.36433c-0.09745,-11.59684 14.81277,-5.06752 15.98219,-12.96117c0.97452,-5.9446 -8.186,-6.33441 -5.16498,-15.68984c7.60129,2.72867 11.49938,8.77072 19.58793,11.10957c7.40638,-16.07965 -0.09745,-44.6332 0.97452,-58.08163c0.1949,-2.53376 1.26688,-14.03315 6.91912,-11.98665c4.97007,1.75414 -0.29236,30.5026 0.29236,43.26887c0.48726,11.69429 -1.46179,23.09622 3.31338,30.5026c39.76058,-5.45733 80.10587,-8.86817 123.08238,-10.0376c-9.45288,-4.093 -20.65991,-7.89364 -33.03636,-14.81277c-6.72422,-3.80064 -27.67648,-11.59684 -29.62553,-17.93124c-3.11848,-10.13505 8.08855,-15.49493 9.94014,-24.1682c-20.07519,10.91467 -23.97329,-10.52486 -28.74846,-25.62998c-4.28791,-13.74079 -6.72422,-23.97329 -7.79619,-31.96439c-17.24908,-8.186 -35.76503,-16.56691 -50.5778,-27.09177l0,0zm201.0443,-21.92679c27.67648,-13.44843 32.64655,50.09053 21.82934,70.55554c1.65669,6.1395 7.40638,8.47836 9.74524,13.93569c-15.39748,27.67648 -32.5491,53.50137 -48.33639,80.78804c11.69429,-7.30893 28.4561,-1.26688 42.19689,-6.72422c5.06752,-1.94905 8.67326,-13.54588 12.47391,-22.70641c10.52486,-25.43508 21.53698,-57.39946 26.4096,-81.66511c1.07198,-5.55479 4.093,-17.54143 3.41083,-22.41405c-1.16943,-8.77072 -13.15607,-15.30003 -19.19812,-20.75736c-11.20703,-10.0376 -18.2236,-18.90577 -29.91789,-28.2612c-4.67772,6.82167 -14.81277,11.49938 -18.61341,17.24908l0,0zm-264.29091,-245.28769c-13.15607,14.52041 -10.42741,41.70963 -8.86817,61.0052c23.77839,-15.00767 55.45042,1.16943 55.15806,26.70196c11.40193,-0.29236 4.28791,-14.22805 2.14395,-23.19367c-6.72422,-29.23572 11.30448,-61.0052 0.77962,-87.80461c-20.2701,1.55924 -37.03191,9.94014 -49.21346,23.29112zm94.23647,-84.19888c-29.82043,8.47836 -68.02178,30.11279 -80.30078,56.9122c9.45288,-1.36433 16.07965,-6.1395 25.43508,-6.72422c3.50829,-0.1949 8.186,1.46179 12.279,0.48726c8.08855,-2.0465 14.91022,-20.17265 21.04972,-26.99432c5.9446,-6.62676 13.15607,-9.45288 18.02869,-15.49493c3.11848,-1.55924 7.79619,-1.36433 7.9911,-6.1395c-1.36433,-1.36433 -2.82612,-2.43631 -4.48281,-2.0465l0,0zm155.33913,7.9911c-30.98986,-17.44398 -83.41926,-30.60005 -116.35817,-14.22805c-26.60451,13.25353 -62.46699,35.18032 -74.74599,62.95425c11.40193,26.79941 -3.41083,51.35742 -4.28791,78.64409c-0.48726,14.52041 6.82167,27.09177 7.40638,42.87906c-3.8981,6.43186 -15.88474,7.21148 -24.1682,6.82167c-2.82612,-13.93569 -7.69874,-29.62553 -22.02424,-31.18477c-20.36755,-2.24141 -35.18032,14.61786 -36.15484,32.15929c-1.07198,20.65991 15.88474,54.96315 39.95548,52.52684c9.25798,-0.87707 11.59684,-10.2325 21.73189,-10.13505c5.45733,10.91467 -8.47836,14.42296 -9.94014,22.21915c-0.38981,2.0465 1.16943,9.94014 2.0465,13.64334c4.38536,18.02869 14.1306,41.41727 23.68093,55.15806c12.18155,17.44398 36.05739,20.07519 61.78482,21.73189c4.58026,-9.94014 21.53698,-9.06307 32.5491,-6.52931c-13.25353,-5.26243 -25.53253,-17.93124 -35.66758,-29.13827c-11.69429,-12.86372 -23.58348,-26.70196 -24.1682,-43.56122c22.1217,30.69751 40.34529,57.39946 80.49568,70.94535c30.40515,10.2325 65.87782,-4.67772 89.2664,-21.04972c9.64779,-6.82167 15.49493,-17.63888 22.41405,-27.57903c25.82489,-37.12937 37.81153,-90.04602 35.18032,-141.30598c-1.07198,-21.14717 -1.07198,-42.29434 -8.186,-56.52239c-7.40638,-14.91022 -32.5491,-28.16374 -47.16696,-14.71531c-2.72867,-14.52041 12.18155,-23.38858 29.72298,-18.2236c-12.47391,-16.07965 -25.53253,-35.47267 -43.36632,-45.51027l0,0zm57.69182,477.41932c24.1682,-11.98665 69.38611,-32.3542 84.58868,0c5.55479,11.98665 12.18155,32.15929 15.10512,44.53575c4.093,17.44398 -4.48281,53.98863 -22.3166,59.83577c-15.78729,5.16498 -34.20579,4.87262 -53.30646,0.97452c-2.24141,-1.8516 -4.77517,-5.06752 -6.52931,-8.47836c-13.54588,-0.48726 -26.31215,0.77962 -37.03191,6.33441c0.97452,10.0376 -5.74969,11.69429 -12.18155,13.74079c-4.67772,18.71086 9.45288,43.17141 6.04205,60.32304c-2.43631,12.18155 -17.34653,14.03315 -28.35865,16.372c-0.38981,6.72422 0.48726,12.37646 1.26688,18.12615c-2.53376,9.25798 -13.83824,14.52041 -24.46055,15.88474c-35.18032,4.19045 -88.58423,6.1395 -122.40022,-6.04205c-9.45288,-23.19367 -16.85927,-51.35742 -24.75291,-77.76702c-33.03636,3.50829 -59.73832,-14.22805 -84.88104,-25.92234c-8.67326,-3.99555 -20.75736,-6.23695 -23.97329,-13.15607c-3.11848,-6.72422 -1.8516,-19.58793 -2.63121,-31.76948c-1.94905,-31.08732 -3.70319,-61.0052 -11.88919,-92.77469c-3.70319,-14.22805 -10.13505,-26.89686 -14.61786,-40.63765c-4.28791,-12.86372 -11.49938,-28.55355 -13.35098,-41.31982c-2.82612,-18.80831 14.91022,-19.88029 26.31215,-28.06629c17.54143,-12.57136 31.28222,-19.58793 50.28544,-30.98986c5.65224,-3.41083 22.60896,-11.88919 24.46055,-15.88474c3.80064,-7.79619 -6.62676,-18.80831 -9.35543,-24.85036c-4.38536,-9.64779 -6.72422,-17.83379 -7.30893,-27.38412c-15.88474,-2.53376 -27.96884,-11.98665 -35.27777,-22.70641c-12.0841,-17.63888 -20.465,-50.38289 -10.0376,-75.33071c0.77962,-1.94905 4.87262,-5.84714 5.45733,-8.86817c1.16943,-5.9446 -2.24141,-13.83824 -2.43631,-20.07519c-1.07198,-32.3542 5.45733,-60.22558 27.28667,-69.97082c8.86817,-35.18032 40.44275,-46.97206 70.26318,-64.41604c11.10957,-6.52931 23.38858,-10.71976 36.15484,-15.39748c45.41282,-16.56691 115.28619,-13.44843 153.00027,15.10512c15.98219,12.0841 41.61218,37.71408 50.7727,56.23004c24.1682,48.92111 22.5115,130.58622 5.55479,190.03218c-2.24141,7.9911 -5.55479,19.68539 -10.13505,29.33317c-3.21593,6.72422 -13.15607,20.07519 -11.98665,26.01979c1.26688,6.1395 22.70641,22.41405 27.38412,26.89686c8.28345,7.9911 24.07074,18.61341 25.33762,28.74846c1.36433,10.71976 -4.77517,25.43508 -7.79619,35.86248c-10.42741,34.5956 -20.56246,66.55999 -32.25674,97.4524" class="st2"/>
   <path stroke="null" fill="#F7E4CD" d="m317.05611,685.88044c1.26688,-1.75414 8.57581,-4.38536 18.61341,0.48726c0,0 -11.98665,1.94905 -11.01212,21.92679l-4.97007,-0.97452c0.09745,-0.09745 -5.06752,-18.12615 -2.63121,-21.43953" class="st7"/>
   <path stroke="null" fill="#1D1919" d="m404.56836,857.39667c0,3.02102 -2.43631,5.45733 -5.45733,5.45733c-3.02102,0 -5.45733,-2.43631 -5.45733,-5.45733s2.43631,-5.45733 5.45733,-5.45733c3.02102,-0.09745 5.45733,2.43631 5.45733,5.45733m5.45733,25.43508c0,3.02102 -2.43631,5.45733 -5.45733,5.45733c-3.02102,0 -5.45733,-2.43631 -5.45733,-5.45733c0,-3.02102 2.43631,-5.45733 5.45733,-5.45733c3.02102,-0.09745 5.45733,2.43631 5.45733,5.45733" class="st12"/>
   <g stroke="null">
    <path stroke="null" d="m984.89741,659.66575c-5.65224,0.68217 -10.42741,1.36433 -14.3255,2.14395c-4.48281,0.77962 -8.86817,1.75414 -13.25353,2.92357c-5.74969,1.55924 -9.45288,4.28791 -11.01212,8.186c-1.65669,3.8981 -2.43631,8.38091 -2.43631,13.44843l0,164.59711c0,15.20257 -3.02102,29.04082 -9.16053,41.70963c-6.1395,12.66881 -14.52041,23.19367 -25.14272,31.76948c-10.81722,8.38091 -22.90131,14.81277 -36.15484,19.10067c-13.35098,4.28791 -27.57903,6.43186 -42.68415,6.43186c-26.2147,0 -47.36187,-6.33441 -63.44151,-18.90577s-24.07074,-29.91789 -24.07074,-51.94213c0,-13.05862 3.70319,-23.87584 11.01212,-32.3542c7.40638,-8.57581 17.54143,-12.86372 30.40515,-12.86372c12.18155,0 21.92679,3.60574 29.13827,10.71976c7.21148,7.11403 10.81722,15.98219 10.81722,26.50705c0,8.96562 -3.11848,17.24908 -9.35543,24.94781c-6.23695,7.60129 -13.35098,14.71531 -21.34208,21.14717l0,2.72867c1.26688,2.82612 3.99555,5.16498 8.186,7.11403c4.19045,1.94905 8.47836,2.92357 12.86372,2.92357c16.85927,0 30.11279,-6.04205 39.76058,-18.12615c9.64779,-12.0841 14.42296,-30.3077 14.42296,-54.76825l0,-168.59265c0,-5.06752 -0.77962,-9.25798 -2.33886,-12.66881c-1.55924,-3.41083 -5.26243,-6.33441 -11.20703,-8.86817c-4.19045,-1.8516 -9.35543,-3.41083 -15.30003,-4.67772c-5.9446,-1.26688 -10.91467,-2.14395 -14.91022,-2.72867l0,-16.372l159.43213,0l0.09745,16.46946l0,0zm249.5756,231.83926c-4.87262,7.9911 -10.81722,15.49493 -17.73634,22.60896c-6.91912,7.11403 -14.81277,13.15607 -23.68093,18.2236c-9.35543,5.35988 -18.90577,9.35543 -28.4561,12.0841c-9.64779,2.72867 -20.65991,4.093 -33.13382,4.093c-20.75736,0 -38.6886,-2.92357 -53.79373,-8.86817c-15.10512,-5.84714 -27.48158,-13.83824 -37.32427,-23.77839c-9.84269,-9.94014 -17.15162,-21.73189 -22.02424,-35.27777c-4.87262,-13.54588 -7.21148,-28.2612 -7.21148,-44.04849c0,-14.3255 2.63121,-27.96884 7.89364,-41.12491c5.16498,-12.96117 12.76626,-24.85036 22.41405,-34.98541c9.55034,-9.94014 21.53698,-18.02869 36.05739,-24.1682c14.52041,-6.1395 30.79496,-9.25798 48.7262,-9.25798c19.58793,0 35.76503,2.33886 48.43384,7.11403c12.66881,4.77517 23.09622,11.40193 31.37967,19.78284c7.9911,7.9911 13.83824,17.44398 17.44398,28.2612c3.60574,10.91467 5.45733,22.3166 5.45733,34.20579l0,13.64334l-142.18305,0c0,28.74846 5.55479,50.67525 16.66436,65.68292c11.10957,15.00767 28.65101,22.5115 52.8192,22.5115c13.15607,0 25.04527,-3.60574 35.57013,-10.81722c10.52486,-7.21148 19.49048,-16.372 26.89686,-27.48158l15.78729,11.59684l0,0zm-80.39823,-79.91097c0,-8.38091 -0.38981,-17.05417 -1.26688,-25.92234c-0.87707,-8.86817 -2.33886,-16.07965 -4.38536,-21.63443c-2.33886,-6.62676 -5.65224,-11.59684 -9.74524,-14.91022c-4.093,-3.41083 -9.35543,-5.06752 -15.68984,-5.06752c-10.81722,0 -19.39303,5.45733 -25.92234,16.372c-6.43186,10.91467 -9.94014,28.2612 -10.52486,51.94213l67.53451,-0.77962zm378.31022,130.19641l-126.39576,0l0,-15.39748c2.63121,-0.29236 5.84714,-0.58471 9.64779,-1.07198c3.80064,-0.38981 6.62676,-1.07198 8.57581,-2.14395c2.92357,-1.55924 5.06752,-3.80064 6.33441,-6.72422c1.26688,-2.92357 1.8516,-7.30893 1.8516,-13.05862l0,-98.42693c0,-14.3255 -2.63121,-25.04527 -7.89364,-32.25674c-5.26243,-7.21148 -13.05862,-10.81722 -23.29112,-10.81722c-5.65224,0 -10.81722,0.87707 -15.68984,2.53376c-4.87262,1.65669 -9.55034,4.093 -14.22805,7.40638c-4.093,2.82612 -7.30893,5.65224 -9.84269,8.67326c-2.14395,2.53376 -4.19045,5.16498 -6.23695,7.79619l0,112.94733c0,4.87262 0.68217,9.06307 2.14395,12.279c1.36433,3.31338 3.70319,5.74969 6.91912,7.50383c2.24141,1.26688 5.06752,2.43631 8.38091,3.41083c3.41083,0.97452 6.62676,1.65669 9.84269,2.14395l0,15.39748l-127.85755,0l0,-15.59238c3.50829,-0.29236 7.11403,-0.68217 10.62231,-1.16943c3.60574,-0.48726 6.62676,-1.16943 9.16053,-2.0465c4.48281,-1.55924 7.60129,-3.8981 9.25798,-7.11403c1.65669,-3.21593 2.53376,-7.40638 2.53376,-12.66881l0,-122.30276c0,-4.38536 -1.16943,-8.57581 -3.41083,-12.86372c-2.24141,-4.19045 -5.16498,-7.60129 -8.86817,-10.32995c-2.53376,-1.65669 -5.74969,-3.11848 -9.55034,-4.19045c-3.8981,-1.07198 -8.08855,-1.8516 -12.76626,-2.33886l0,-15.39748l100.37597,-5.45733l3.11848,3.11848l0,30.5026l0.87707,0c4.77517,-4.19045 9.55034,-8.47836 14.3255,-12.66881c5.65224,-4.87262 10.81722,-8.86817 15.59238,-11.98665c5.16498,-3.41083 11.98665,-6.23695 20.36755,-8.67326c8.38091,-2.33886 17.34653,-3.60574 26.89686,-3.60574c22.90131,0 39.95548,6.52931 51.45487,19.49048c11.40193,12.96117 17.15162,30.21024 17.15162,51.64977l0,103.10464c0,5.16498 0.77962,9.35543 2.33886,12.37646c1.55924,3.11848 4.38536,5.55479 8.67326,7.40638c2.24141,0.97452 4.97007,1.94905 8.28345,2.92357c3.31338,0.97452 7.01657,1.65669 11.30448,2.14395l0,15.49493l0,0zm289.43363,0l-99.20654,0c-12.18155,-21.43953 -23.29112,-39.56568 -33.42617,-54.47589c-9.45288,-13.93569 -18.90577,-27.67648 -28.55355,-41.41727l-12.37646,10.52486l0,45.90008c0,5.06752 0.77962,9.16053 2.24141,12.37646c1.46179,3.21593 4.28791,5.65224 8.47836,7.11403c2.53376,1.16943 5.45733,2.14395 8.86817,2.92357c3.41083,0.87707 6.72422,1.36433 10.13505,1.65669l0,15.39748l-130.68367,0l0,-15.39748c3.50829,-0.29236 7.11403,-0.68217 10.62231,-1.16943c3.50829,-0.48726 6.62676,-1.16943 9.35543,-2.0465c4.48281,-1.55924 7.60129,-3.8981 9.25798,-7.11403c1.65669,-3.21593 2.43631,-7.40638 2.43631,-12.66881l0,-234.47048c0,-4.67772 -0.97452,-9.45288 -3.02102,-14.42296c-2.0465,-4.97007 -4.97007,-8.77072 -8.96562,-11.20703c-2.63121,-1.65669 -6.62676,-3.11848 -11.98665,-4.19045c-5.35988,-1.16943 -10.13505,-1.8516 -14.52041,-2.14395l0,-15.39748l104.76133,-5.45733l3.11848,3.41083l0,217.12395c10.32995,-9.25798 22.02424,-19.97774 34.98541,-32.15929c12.96117,-12.18155 23.38858,-22.3166 31.18477,-30.3077c4.67772,-4.77517 7.21148,-8.38091 7.69874,-10.81722c0.48726,-2.43631 0.77962,-3.99555 0.77962,-4.48281c0,-2.53376 -2.24141,-4.67772 -6.62676,-6.33441c-4.38536,-1.65669 -11.10957,-3.11848 -19.97774,-4.38536l0,-14.91022l106.90528,0l0,14.52041c-14.03315,3.8981 -24.65546,7.60129 -32.06184,11.01212c-7.30893,3.41083 -15.39748,7.9911 -24.07074,13.74079c-5.74969,3.80064 -11.30448,7.69874 -16.66436,11.88919c-5.35988,4.19045 -11.59684,9.35543 -18.51596,15.49493c13.74079,19.88029 26.4096,38.29879 38.00644,55.25551c11.59684,16.95672 23.77839,34.88796 36.54465,53.79373c4.38536,6.62676 9.74524,11.01212 16.1771,13.25353c6.43186,2.24141 12.86372,3.60574 19.29558,4.19045l-0.1949,15.39748l0,0zm135.26393,0l-132.92508,0l0,-15.39748c3.60574,-0.29236 7.21148,-0.58471 10.71976,-1.07198c3.50829,-0.38981 6.52931,-1.07198 9.06307,-2.14395c4.48281,-1.65669 7.60129,-4.093 9.45288,-7.21148c1.8516,-3.11848 2.72867,-7.30893 2.72867,-12.47391l0,-122.40022c0,-4.87262 -1.16943,-9.25798 -3.41083,-12.96117c-2.24141,-3.70319 -5.06752,-6.72422 -8.38091,-8.96562c-2.53376,-1.65669 -6.33441,-3.31338 -11.49938,-4.87262c-5.16498,-1.55924 -9.74524,-2.53376 -14.03315,-2.92357l0,-15.39748l103.10464,-5.45733l3.11848,3.11848l0,167.03342c0,4.87262 1.07198,9.06307 3.11848,12.47391c2.14395,3.41083 5.16498,6.04205 9.06307,7.69874c2.82612,1.26688 5.84714,2.43631 9.25798,3.41083c3.41083,0.97452 6.82167,1.65669 10.52486,2.14395l0.09745,15.39748l0,0zm-30.69751,-286.99732c0,10.62231 -4.093,19.78284 -12.279,27.28667c-8.186,7.50383 -17.93124,11.30448 -29.13827,11.30448c-11.40193,0 -21.14717,-3.80064 -29.33317,-11.30448c-8.186,-7.50383 -12.279,-16.56691 -12.279,-27.28667c0,-10.62231 4.093,-19.78284 12.279,-27.38412c8.186,-7.60129 18.02869,-11.40193 29.33317,-11.40193s21.14717,3.80064 29.23572,11.40193c8.08855,7.69874 12.18155,16.76181 12.18155,27.38412l0,0zm327.82988,286.99732l-126.39576,0l0,-15.39748c2.63121,-0.29236 5.84714,-0.58471 9.64779,-1.07198c3.80064,-0.38981 6.62676,-1.07198 8.67326,-2.14395c2.92357,-1.55924 5.06752,-3.80064 6.33441,-6.72422c1.26688,-2.92357 1.8516,-7.30893 1.8516,-13.05862l0,-98.42693c0,-14.3255 -2.63121,-25.04527 -7.89364,-32.25674c-5.26243,-7.21148 -13.05862,-10.81722 -23.29112,-10.81722c-5.65224,0 -10.81722,0.87707 -15.68984,2.53376c-4.87262,1.65669 -9.55034,4.093 -14.22805,7.40638c-4.093,2.82612 -7.30893,5.65224 -9.84269,8.67326c-2.14395,2.53376 -4.19045,5.16498 -6.23695,7.79619l0,112.94733c0,4.87262 0.68217,9.06307 2.14395,12.279c1.36433,3.31338 3.70319,5.74969 6.91912,7.50383c2.24141,1.26688 5.06752,2.43631 8.38091,3.41083c3.41083,0.97452 6.62676,1.65669 9.84269,2.14395l0,15.39748l-127.955,0l0,-15.59238c3.50829,-0.29236 7.11403,-0.68217 10.62231,-1.16943c3.60574,-0.48726 6.62676,-1.16943 9.16053,-2.0465c4.48281,-1.55924 7.60129,-3.8981 9.25798,-7.11403c1.65669,-3.21593 2.53376,-7.40638 2.53376,-12.66881l0,-122.30276c0,-4.38536 -1.16943,-8.57581 -3.41083,-12.86372c-2.24141,-4.19045 -5.16498,-7.60129 -8.86817,-10.32995c-2.53376,-1.65669 -5.74969,-3.11848 -9.55034,-4.19045c-3.8981,-1.07198 -8.08855,-1.8516 -12.76626,-2.33886l0,-15.39748l100.37597,-5.45733l3.11848,3.11848l0,30.5026l0.87707,0c4.77517,-4.19045 9.55034,-8.47836 14.3255,-12.66881c5.65224,-4.87262 10.81722,-8.86817 15.59238,-11.98665c5.16498,-3.41083 11.98665,-6.23695 20.36755,-8.67326c8.38091,-2.33886 17.34653,-3.60574 26.89686,-3.60574c22.90131,0 40.05294,6.52931 51.45487,19.49048c11.40193,12.96117 17.15162,30.21024 17.15162,51.64977l0,103.10464c0,5.16498 0.77962,9.35543 2.33886,12.37646c1.55924,3.11848 4.38536,5.55479 8.67326,7.40638c2.24141,0.97452 4.97007,1.94905 8.28345,2.92357c3.31338,0.97452 7.01657,1.65669 11.30448,2.14395l0,15.49493l0,0zm116.94288,7.21148c-13.54588,0 -26.99432,-2.0465 -39.85803,-6.04205c-12.96117,-3.99555 -22.99877,-8.28345 -30.21024,-12.76626l-6.33441,14.3255l-16.372,0l-2.72867,-78.44918l15.39748,0c2.14395,6.33441 5.65224,13.44843 10.52486,21.34208s10.52486,15.00767 16.85927,21.34208c6.62676,6.33441 14.1306,11.59684 22.60896,15.98219c8.47836,4.38536 17.54143,6.52931 27.28667,6.52931c12.76626,0 22.21915,-2.53376 28.4561,-7.50383c6.23695,-4.97007 9.35543,-12.66881 9.35543,-22.99877c0,-5.65224 -1.36433,-10.2325 -4.19045,-13.83824c-2.82612,-3.60574 -6.62676,-6.82167 -11.59684,-9.45288c-5.45733,-2.82612 -11.49938,-5.16498 -18.02869,-7.11403c-6.52931,-1.94905 -14.52041,-4.38536 -24.07074,-7.11403c-9.55034,-2.82612 -17.73634,-5.65224 -24.46055,-8.47836c-6.82167,-2.82612 -13.83824,-7.40638 -21.14717,-13.54588c-6.33441,-5.45733 -11.40193,-12.0841 -15.10512,-19.78284c-3.80064,-7.69874 -5.65224,-16.85927 -5.65224,-27.57903c0,-19.78284 8.28345,-35.76503 24.94781,-47.94658s38.39625,-18.32105 65.29311,-18.32105c12.76626,0 24.46055,1.26688 35.27777,3.8981c10.71976,2.63121 19.78284,5.45733 26.99432,8.47836l4.38536,-12.37646l15.98219,0l3.41083,71.72497l-14.71531,0c-4.87262,-14.61786 -13.35098,-27.18922 -25.24017,-37.71408c-11.88919,-10.62231 -24.75291,-15.88474 -38.4937,-15.88474c-10.81722,0 -19.29558,2.24141 -25.43508,6.72422c-6.1395,4.48281 -9.25798,10.71976 -9.25798,18.71086c0,10.62231 4.48281,18.4185 13.54588,23.09622c9.06307,4.77517 21.63443,9.25798 37.90898,13.44843c25.04527,6.43186 43.36632,15.30003 55.06061,26.4096c11.59684,11.10957 17.44398,25.33762 17.44398,42.5867c0,22.99877 -9.06307,40.83256 -26.99432,53.40392c-18.32105,12.57136 -41.80708,18.90577 -70.8479,18.90577l0,0z"/>
   </g>
  </g>
 </g>
</svg>